<svg xmlns="http://www.w3.org/2000/svg" viewBox="0 0 32 32" width="32" height="32">
  <rect width="32" height="32" rx="7" fill="#9bf5a3"/>
  <g transform="translate(16 16) scale(1.16) translate(-16 -16)">
    <path fill="#0e100d" fill-rule="evenodd" d="M10.2 7.8 L7.8 3.6 L14.1 5.3 C14.9 5.1 15.7 5 16.5 5 C22 5 26.3 9.3 26.3 15 C26.3 21.5 21.6 26.9 15.5 26.9 C10.1 26.9 6 22.6 6 17 C6 13.4 7.7 10.2 10.2 7.8 Z M11.9 16.1 L20.8 12.2 C21.6 11.9 22.4 12.3 22.7 13.1 C23 13.9 22.6 14.8 21.8 15.1 L12.9 19 C12.1 19.3 11.3 18.9 11 18.1 C10.7 17.3 11.1 16.4 11.9 16.1 Z"/>
  </g>
</svg>
